<svg xmlns="http://www.w3.org/2000/svg" width="21" height="20" fill="none" viewBox="0 0 21 20">
    <path fill="#000" fill-rule="evenodd" d="M10.429 17.029c5.207 0 9.429-3.588 9.429-8.015 0-4.426-4.222-8.014-9.43-8.014C5.222 1 1 4.588 1 9.014c0 2.215 1.057 4.22 2.764 5.67l-.335 3.905 3.645-2.082c1.042.337 2.173.522 3.355.522z" clip-rule="evenodd"/>
    <path fill="#000" d="M3.764 14.684l.598.051c.017-.193-.061-.383-.21-.508l-.388.457zm-.335 3.905l-.598-.051c-.02.222.087.437.275.557.188.12.427.126.62.015l-.297-.52zm3.645-2.082l.184-.571c-.16-.052-.335-.034-.482.05l.298.52zm12.184-7.493c0 4.008-3.858 7.415-8.83 7.415v1.2c5.444 0 10.03-3.77 10.03-8.615h-1.2zM10.428 1.6c4.972 0 8.83 3.407 8.83 7.414h1.2C20.457 4.17 15.871.4 10.428.4v1.2zM1.6 9.014C1.6 5.007 5.458 1.6 10.429 1.6V.4C4.985.4.4 4.17.4 9.014h1.2zm2.553 5.213C2.559 12.873 1.6 11.028 1.6 9.014H.4c0 2.415 1.154 4.58 2.976 6.127l.777-.914zm-.126 4.414l.335-3.906-1.195-.102-.336 3.905 1.196.103zm2.749-2.655L3.13 18.068l.595 1.042 3.645-2.082-.595-1.042zm3.653.443c-1.12 0-2.188-.175-3.17-.493l-.37 1.141c1.102.357 2.295.552 3.54.552v-1.2z"/>
</svg>
